# xmcd CD database file
#
# Track frame offsets:
#	150
#	22513
#	37985
#	60733
#	93610
#	109175
#	134205
#	153505
#	168225
#	187160
#	204773
#	215735
#	233138
#	252973
#	270375
#
# Disc length: 4090 seconds
#
# Revision: 0
# Processed by: cddbd v1.5.1PL2 Copyright (c) Steve Scherf et al.
# Submitted via: CDex 1.51
#
DISCID=cf0ff80f
DTITLE=Medicare 7, 8, or 9 Dixieland Jazz Band at UIUC - Live at the Krannert
DYEAR=1991
DGENRE=Jazz
TTITLE0=Musrat Ramble
TTITLE1=Basin Street Blues
TTITLE2=Sweet Georgia Brown
TTITLE3=Joe Turner Blues
TTITLE4=Hindustan
TTITLE5=If He Walked Into My Life
TTITLE6=Sound of the Bell
TTITLE7=Jazz Me Blues
TTITLE8=What a Little Moonlight Can Do
TTITLE9=St. James Infirmary
TTITLE10=Radio
TTITLE11=In My Solitude
TTITLE12=Dr. Jazz
TTITLE13=Washington and Lee Swing
TTITLE14=Just a Closer Walk With Thee/When the Saints Go Marching In
EXTD=YEAR: 1991
EXTT0=
EXTT1=
EXTT2=
EXTT3=
EXTT4=
EXTT5=
EXTT6=
EXTT7=
EXTT8=
EXTT9=
EXTT10=
EXTT11=
EXTT12=
EXTT13=
EXTT14=
PLAYORDER=
